<!--<svg xmlns="http://www.w3.org/2000/svg" height="1em" viewBox="0 0 512 512">&lt;!&ndash;! Font Awesome Free 6.4.0 by @fontawesome - https://fontawesome.com License - https://fontawesome.com/license (Commercial License) Copyright 2023 Fonticons, Inc. &ndash;&gt;<style>svg{fill:#ffffff}</style><path d="M470.6 278.6c12.5-12.5 12.5-32.8 0-45.3l-160-160c-12.5-12.5-32.8-12.5-45.3 0s-12.5 32.8 0 45.3L402.7 256 265.4 393.4c-12.5 12.5-12.5 32.8 0 45.3s32.8 12.5 45.3 0l160-160zm-352 160l160-160c12.5-12.5 12.5-32.8 0-45.3l-160-160c-12.5-12.5-32.8-12.5-45.3 0s-12.5 32.8 0 45.3L210.7 256 73.4 393.4c-12.5 12.5-12.5 32.8 0 45.3s32.8 12.5 45.3 0z"/></svg>-->
<svg xmlns="http://www.w3.org/2000/svg" height="1em" viewBox="0 0 256 512"><!--! Font Awesome Free 6.4.0 by @fontawesome - https://fontawesome.com License - https://fontawesome.com/license (Commercial License) Copyright 2023 Fonticons, Inc. --><style>svg{fill:#ffffff}</style><path d="M246.6 278.6c12.5-12.5 12.5-32.8 0-45.3l-128-128c-9.2-9.2-22.9-11.9-34.9-6.9s-19.8 16.6-19.8 29.6l0 256c0 12.9 7.8 24.6 19.8 29.6s25.7 2.2 34.9-6.9l128-128z"/></svg>